<?xml version="1.0" encoding="UTF-8"?>
<svg id="Capa_2" data-name="Capa 2" xmlns="http://www.w3.org/2000/svg" viewBox="0 0 566.75 195.19">
  <defs>
    <style>
      .cls-1 {
        fill: #e52521;
      }

      .cls-1, .cls-2, .cls-3, .cls-4, .cls-5, .cls-6, .cls-7 {
        stroke-width: 0px;
      }

      .cls-2 {
        fill: #fefefe;
      }

      .cls-3 {
        fill: #e52621;
      }

      .cls-4 {
        fill: #e52622;
      }

      .cls-5 {
        fill: #fffefe;
      }

      .cls-6 {
        fill: #fff;
      }

      .cls-7 {
        fill: #fdfdfd;
      }
    </style>
  </defs>
  <g id="Capa_1-2" data-name="Capa 1">
    <g>
      <g>
        <path class="cls-1" d="M455.08,55.31c0,13.19,0,26.39,0,39.58-.52.51-1.16.25-1.74.25-11.84.02-23.67.01-35.51.02-.6,0-1.22-.16-1.8.17-.34,4.55-.05,9.11-.15,13.67-.01.58.25.79.8.77.44-.02.89,0,1.34,0,15.98,0,31.96.03,47.94-.04,1.58,0,1.88.46,1.87,1.93-.06,12.19-.05,24.39,0,36.58,0,1.18-.19,1.59-1.51,1.59-29.57-.05-59.14-.04-88.71-.05-.37-.5-.19-1.08-.19-1.62,0-48.81,0-97.62,0-146.43,0-.54-.19-1.12.2-1.61,29.52,0,59.03,0,88.55-.03,1.26,0,1.67.25,1.66,1.61-.06,12.25-.06,24.5,0,36.75,0,1.35-.27,1.76-1.7,1.75-16.15-.06-32.3-.02-48.45-.07-1.43,0-1.9.28-1.84,1.8.13,3.78.03,7.57.05,11.36,0,.54-.18,1.12.21,1.61.57.34,1.2.17,1.8.17,11.81.01,23.61,0,35.42.02.58,0,1.23-.25,1.76.23Z"/>
        <path class="cls-1" d="M52.2,96.03c12.08.02,24.16.08,36.24,0,1.82-.01,2.13.54,2.12,2.21-.07,10.97-.05,21.93-.02,32.9,0,.96-.25,1.64-.93,2.34-5.05,5.17-10.06,10.39-15.05,15.61-.52.54-1.04.71-1.75.71-18.43-.01-36.86-.02-55.29,0-.72,0-1.24-.2-1.74-.72-4.04-4.2-8.13-8.34-12.13-12.58-1.05-1.12-1.89-2.44-3.14-3.38-.71-.53-.48-1.31-.48-2,0-15.42,0-30.84,0-46.26C.03,62.87.04,40.88,0,18.89c0-1.14.27-1.97,1.1-2.77,3.68-3.53,6.88-7.52,10.71-10.91.52-.46.88-1.11,1.32-1.67C15.03,1.12,17.19-.04,20.57,0c17.2.23,34.41.11,51.61.09,1.05,0,1.8.24,2.58,1.06,4.87,5.12,9.81,10.17,14.76,15.21.71.72,1.03,1.44,1.02,2.48-.04,11.13-.05,22.27,0,33.4,0,1.32-.35,1.64-1.65,1.64-12.25-.04-24.5-.02-36.75,0-.43-.48-.21-1.06-.22-1.58-.02-3.47,0-6.94-.02-10.42,0-.54.15-1.1-.17-1.61-4.06-.03-8.12-.04-12.18-.11-.86-.01-1.01.36-.99,1.09.04,1.67.01,3.34.01,5.01,0,20.48.03,40.95-.05,61.43,0,1.8.52,2.19,2.2,2.12,3.66-.16,7.33-.11,11-.15.4-3.3.03-6.61.19-9.91.06-1.24-.34-2.51.25-3.71Z"/>
        <path class="cls-1" d="M249.62,95.32c-.28.64-.14,1.32-.14,1.98,0,16.92-.02,33.84.03,50.77,0,1.38-.32,1.76-1.72,1.75-12.19-.06-24.38-.04-36.58-.05-.37-.5-.19-1.08-.19-1.62,0-48.81,0-97.62,0-146.43,0-.54-.19-1.12.2-1.61,24.17,0,48.33,0,72.5-.03,1.04,0,1.74.3,2.45,1.05,4.78,5.04,9.6,10.05,14.44,15.03.59.61.81,1.21.81,2.05-.02,14.92-.03,29.84,0,44.76,0,.97-.29,1.65-.97,2.33-2.85,2.81-5.6,5.74-8.5,8.51-1,.95-.83,1.44.05,2.31,2.9,2.84,5.71,5.79,8.59,8.65.6.6.83,1.21.83,2.05-.02,20.54-.03,41.09,0,61.63,0,1.13-.34,1.36-1.4,1.35-11.8-.04-23.61-.04-35.41,0-1.27,0-1.56-.33-1.56-1.57.04-16.98.03-33.96.02-50.94,0-.66-.09-1.32-.14-1.98-3.34-.4-6.7-.1-10.05-.16-1.09-.02-2.2-.23-3.27.16Z"/>
        <path class="cls-1" d="M204.9,149.78h-8.92c-9.52,0-19.05-.02-28.57.02-1.24,0-1.72-.27-2.03-1.64-1.76-8.06-3.7-16.08-5.57-24.12-.28-1.18-.66-1.92-2.22-1.87-4.62.15-9.24.09-13.87.03-1.11-.01-1.51.37-1.76,1.43-1.96,8.38-4,16.74-5.98,25.11-.17.71-.42,1.05-1.19,1.05-12.81-.02-25.61-.01-38.56-.01,1.25-5.02,2.5-9.93,3.7-14.84,1.47-6.03,2.92-12.06,4.35-18.1,1.58-6.66,3.09-13.34,4.7-19.99,1.68-6.97,3.34-13.94,5.04-20.9,1.48-6.07,3.01-12.13,4.47-18.21,1.65-6.86,3.18-13.76,4.9-20.59,2.46-9.81,4.63-19.7,7.26-29.46.54-2.01.96-4.06,1.37-6.1.21-1.06.61-1.51,1.81-1.51,11.19.05,22.39.04,33.58.02,1,0,1.49.11,1.77,1.31,3.25,13.87,6.58,27.73,9.94,41.58,2.26,9.31,4.61,18.61,6.87,27.92,4.03,16.61,8.03,33.23,12.04,49.84,2.23,9.22,4.45,18.43,6.67,27.65.1.42.13.85.2,1.38Z"/>
        <path class="cls-1" d="M320.44,40.25c-2.56-.03-5.12-.11-7.67-.06-1.05.02-1.3-.33-1.3-1.34.03-12.47.04-24.94,0-37.41,0-1.17.42-1.34,1.45-1.34,17.6.03,35.19.03,52.79,0,1.13,0,1.51.25,1.51,1.45-.04,12.36-.05,24.72,0,37.08,0,1.26-.33,1.63-1.58,1.57-2-.11-4.01.05-6.01-.06-1.2-.06-1.46.32-1.46,1.48.04,12.3.03,24.61.03,36.91,0,9.91.03,19.82-.03,29.73,0,1.28.35,1.61,1.58,1.54,1.89-.11,3.79.05,5.68-.05,1.37-.07,1.81.35,1.8,1.77-.05,11.52-.03,23.05-.03,34.58q0,3.7-3.7,3.7c-16.76,0-33.52-.02-50.28.03-1.37,0-1.75-.32-1.74-1.72.06-12.25.06-24.5,0-36.75,0-1.34.38-1.65,1.65-1.62,2.44.07,4.89-.04,7.34-.08.32-.52.17-1.09.17-1.63,0-22.05,0-44.09,0-66.14,0-.54.15-1.12-.17-1.63Z"/>
        <path class="cls-1" d="M476.55.11c24.11,0,48.22,0,72.33-.03.98,0,1.63.3,2.29,1,4.93,5.21,9.87,10.41,14.86,15.56.68.7.7,1.44.7,2.27,0,15.14,0,30.29,0,45.43,0,22.16,0,44.32.03,66.48,0,1.21-.34,2.05-1.18,2.91-4.88,5.03-9.7,10.11-14.52,15.19-.57.6-1.14.88-2.01.88-24.17-.03-48.33-.03-72.5-.04-.37-.5-.19-1.08-.19-1.62,0-48.81,0-97.62,0-146.43,0-.54-.19-1.12.2-1.61Z"/>
        <path class="cls-7" d="M211.21.11c-.02.5-.05,1-.05,1.5,0,48.94,0,97.88,0,146.82,0,.44.03.89.04,1.33-.61-.46-.36-1.13-.37-1.7-.01-48.75-.01-97.51,0-146.26,0-.57-.25-1.24.37-1.7Z"/>
        <path class="cls-7" d="M377.63.11c-.02.5-.05,1-.05,1.5,0,48.94,0,97.88,0,146.82,0,.44.03.89.04,1.33-.61-.46-.36-1.13-.37-1.7-.01-48.75-.01-97.51,0-146.26,0-.57-.25-1.24.37-1.7Z"/>
        <path class="cls-7" d="M476.55.11c-.02.5-.05,1-.05,1.5,0,48.94,0,97.88,0,146.82,0,.44.03.89.04,1.33-.61-.46-.36-1.13-.37-1.7-.01-48.75-.01-97.51,0-146.26,0-.57-.25-1.24.37-1.7Z"/>
        <path class="cls-7" d="M320.44,40.25c.62.39.29,1,.29,1.5.02,22.13.02,44.27,0,66.4,0,.5.32,1.11-.29,1.5,0-23.14,0-46.27,0-69.41Z"/>
        <path class="cls-7" d="M455.08,55.31c-.62-.35-1.31-.22-1.96-.22-11.74,0-23.49,0-35.23-.02-.59,0-1.22.21-1.78-.18,12.38,0,24.76,0,37.14.01.61,0,1.35-.32,1.83.4Z"/>
        <path class="cls-7" d="M416.04,95.32c.48-.6,1.14-.27,1.69-.27,11.79-.02,23.58-.02,35.36-.02.66,0,1.32-.09,1.98-.14-.46.75-1.21.42-1.82.42-12.41.02-24.81.02-37.22.02Z"/>
        <path class="cls-7" d="M51.76,40.25c.6.4.27,1,.28,1.5.06,4.04.09,8.08.12,12.11-.66-.43-.39-1.1-.39-1.67-.02-3.98-.01-7.96-.01-11.94Z"/>
        <path class="cls-7" d="M52.2,96.03c-.32,3.98-.04,7.97-.16,11.95-.02.55.35,1.21-.28,1.67,0-3.99-.01-7.98.01-11.98,0-.56-.29-1.25.43-1.64Z"/>
        <path class="cls-7" d="M249.62,95.32c.17-.42.55-.28.85-.28,3.87,0,7.74,0,11.61,0,.3,0,.68-.14.85.28-4.44,0-8.88,0-13.32,0Z"/>
        <path class="cls-6" d="M380.98,74.95c0-23.16.01-46.32-.03-69.48,0-1.45.26-1.97,1.88-1.97,26.56.06,53.12.05,79.68,0,1.49,0,1.96.32,1.95,1.9-.08,9.85-.07,19.71,0,29.56,0,1.43-.44,1.73-1.78,1.72-16.15-.04-32.3-.01-48.44-.06-1.4,0-1.91.24-1.88,1.8.11,6.12.09,12.25.01,18.37-.02,1.36.29,1.78,1.72,1.77,11.92-.06,23.83,0,35.75-.07,1.39,0,1.74.33,1.73,1.73-.07,9.97-.06,19.93,0,29.9,0,1.27-.34,1.55-1.57,1.54-11.97-.05-23.94,0-35.91-.06-1.42,0-1.73.39-1.71,1.75.08,6.07.08,12.14,0,18.2-.02,1.41.39,1.75,1.76,1.74,16.15-.05,32.3,0,48.44-.07,1.58,0,1.9.46,1.89,1.94-.07,9.85-.06,19.71,0,29.56,0,1.29-.3,1.67-1.64,1.67-26.73-.04-53.45-.05-80.18,0-1.51,0-1.66-.55-1.66-1.82.04-23.22.03-46.43.03-69.65Z"/>
        <path class="cls-6" d="M3.55,74.85c0-18.15.01-36.3-.03-54.45,0-1.21.34-2.07,1.18-2.93,4.16-4.27,8.27-8.58,12.36-12.91.71-.75,1.43-1.04,2.46-1.04,17.15.03,34.3.03,51.45,0,1.09,0,1.86.3,2.61,1.1,4.17,4.41,8.38,8.78,12.6,13.14.67.69.96,1.38.96,2.35-.03,9.58-.04,19.15,0,28.73,0,1.12-.24,1.54-1.45,1.53-9.63-.05-19.27-.05-28.9,0-1.13,0-1.38-.36-1.37-1.42.06-3.62,0-7.24.04-10.86.01-1.01-.14-1.47-1.33-1.45-5.9.06-11.8.06-17.71,0-1.15-.01-1.35.42-1.35,1.46.03,24.55.03,49.1,0,73.66,0,1.1.21,1.56,1.44,1.55,5.85-.06,11.69-.05,17.54,0,1.06,0,1.44-.23,1.42-1.37-.08-3.67,0-7.35-.05-11.02-.01-.99.2-1.34,1.27-1.33,9.69.04,19.38.04,29.07,0,1.13,0,1.39.35,1.38,1.42-.04,9.69-.03,19.37,0,29.06,0,.78-.22,1.36-.76,1.92-4.38,4.52-8.73,9.06-13.07,13.61-.54.57-1.09.82-1.89.82-17.43-.02-34.86-.02-52.29,0-.81,0-1.33-.3-1.86-.85-4.3-4.52-8.6-9.03-12.95-13.5-.72-.74-.78-1.51-.78-2.42,0-18.26,0-36.52,0-54.78Z"/>
        <path class="cls-6" d="M214.56,75.02c0-23.22.01-46.44-.03-69.66,0-1.45.32-1.86,1.82-1.85,21.94.05,43.88.04,65.82.01,1.04,0,1.75.3,2.46,1.05,4.12,4.38,8.28,8.72,12.46,13.05.62.64.93,1.26.92,2.18-.03,13.92-.03,27.84,0,41.76,0,.85-.25,1.45-.83,2.06-3.28,3.42-6.49,6.89-9.79,10.28-.79.81-.83,1.3-.02,2.13,3.27,3.35,6.44,6.79,9.69,10.15.67.69.95,1.38.95,2.35-.02,18.76-.03,37.53,0,56.29,0,1.21-.26,1.61-1.55,1.6-9.47-.06-18.93-.06-28.4,0-1.35,0-1.51-.48-1.51-1.63.03-17.09,0-34.19.06-51.28,0-1.52-.37-1.93-1.9-1.9-5.68.1-11.36.08-17.04,0-1.36-.02-1.76.29-1.75,1.71.05,17.04,0,34.08.07,51.11,0,1.62-.39,2.01-2,1.99-9.24-.08-18.49-.07-27.73,0-1.39,0-1.75-.35-1.74-1.74.04-23.22.03-46.44.03-69.66Z"/>
        <path class="cls-6" d="M116.76,146.38c-4.84,0-9.69-.03-14.53.02-1.19.01-1.54-.22-1.23-1.49,8.73-35.86,17.44-71.73,26.14-107.6,2.61-10.73,5.23-21.46,7.78-32.21.28-1.19.68-1.6,1.95-1.6,9.3.06,18.6.05,27.9,0,1.14,0,1.63.29,1.91,1.44,11.25,46.56,22.52,93.12,33.85,139.66.39,1.62.03,1.81-1.46,1.8-9.69-.06-19.38-.06-29.07,0-1.29,0-1.69-.47-1.95-1.58-1.96-8.26-3.98-16.51-5.92-24.78-.24-1.02-.59-1.34-1.63-1.34-6.57.05-13.14.04-19.71,0-.97,0-1.31.3-1.53,1.25-1.85,8.18-3.8,16.33-5.63,24.51-.31,1.4-.76,1.99-2.35,1.95-4.84-.13-9.69-.05-14.53-.05Z"/>
        <path class="cls-6" d="M354.73,74.94c0,12.19.02,24.39-.03,36.58,0,1.34.27,1.88,1.72,1.79,2-.13,4.01,0,6.01-.05.91-.03,1.25.21,1.25,1.2-.03,10.25-.03,20.49,0,30.74,0,.97-.33,1.21-1.26,1.21-15.37-.02-30.74-.03-46.11,0-1,0-1.34-.25-1.34-1.3.04-10.19.04-20.38,0-30.57,0-1.06.33-1.32,1.33-1.28,2.23.07,4.46-.01,6.68.04.85.02,1.22-.21,1.16-1.11-.07-1-.02-2-.02-3.01,0-23.55-.02-47.11.04-70.66,0-1.58-.46-1.97-1.94-1.88-1.89.12-3.79-.05-5.68.06-1.23.07-1.59-.28-1.59-1.55.06-9.08.03-18.15.04-27.23,0-1.39-.45-3.22.26-4.04.83-.96,2.72-.31,4.15-.32,14.15-.02,28.29,0,42.44-.05,1.46,0,1.86.34,1.85,1.83-.07,9.85-.08,19.71,0,29.57.01,1.54-.46,1.89-1.87,1.79-1.72-.12-3.46.1-5.17-.06-1.71-.17-1.97.52-1.96,2.06.06,12.08.03,24.17.03,36.25Z"/>
        <path class="cls-5" d="M479.89,74.91c0-23.17.02-46.33-.04-69.5,0-1.57.45-1.9,1.94-1.9,21.78.05,43.55.04,65.33.02,1.07,0,1.86.24,2.63,1.06,4.12,4.38,8.3,8.71,12.49,13.03.74.76,1.11,1.51,1.11,2.63-.03,36.47-.03,72.95,0,109.42,0,1.01-.22,1.77-.96,2.52-4.28,4.38-8.52,8.81-12.73,13.26-.67.71-1.36.97-2.33.97-21.94-.02-43.89-.03-65.83.01-1.36,0-1.64-.4-1.64-1.68.04-23.28.03-46.55.03-69.83Z"/>
        <path class="cls-1" d="M383.78,74.8c0-22.22.01-44.43-.03-66.65,0-1.45.33-1.84,1.82-1.84,24.78.05,49.56.05,74.34,0,1.38,0,1.76.33,1.75,1.73-.07,8.07-.07,16.15,0,24.22.01,1.32-.35,1.65-1.66,1.64-16.15-.04-32.3,0-48.45-.06-1.48,0-1.94.31-1.92,1.88.09,7.91.08,15.81,0,23.72-.01,1.4.23,1.85,1.77,1.84,11.92-.08,23.83-.02,35.75-.07,1.27,0,1.67.26,1.66,1.61-.07,8.18-.07,16.37,0,24.55,0,1.28-.36,1.55-1.58,1.54-11.97-.05-23.95-.01-35.92-.05-1.23,0-1.69.21-1.68,1.59.08,8.02.07,16.04,0,24.05-.01,1.31.4,1.52,1.59,1.52,16.2-.04,32.41,0,48.61-.06,1.46,0,1.84.34,1.82,1.81-.08,8.02-.07,16.03,0,24.05.01,1.36-.31,1.78-1.73,1.77-24.78-.04-49.56-.05-74.34,0-1.48,0-1.84-.38-1.83-1.84.05-22.33.03-44.65.03-66.98Z"/>
        <path class="cls-1" d="M6.29,75.11c0-17.76.01-35.53-.02-53.29,0-1.15.31-1.97,1.11-2.79,3.77-3.87,7.49-7.78,11.19-11.72.67-.71,1.35-.98,2.32-.98,16.26.03,32.52.03,48.79,0,1.04,0,1.74.3,2.45,1.06,3.69,3.94,7.43,7.84,11.19,11.72.71.73,1.04,1.45,1.04,2.49-.04,8.13-.06,16.26.01,24.39.01,1.36-.42,1.63-1.68,1.62-7.63-.06-15.26-.06-22.89,0-1.35.01-1.67-.39-1.64-1.68.09-3.56-.02-7.13.06-10.69.02-1.14-.36-1.38-1.42-1.38-7.69.04-15.37.04-23.06,0-1.09,0-1.39.29-1.39,1.39.03,26.45.03,52.9,0,79.35,0,1.21.35,1.45,1.49,1.44,7.63-.05,15.26-.05,22.89,0,1.15,0,1.52-.27,1.49-1.46-.08-3.62,0-7.24-.05-10.86-.02-1.05.22-1.43,1.37-1.42,7.8.05,15.59.04,23.39,0,1.02,0,1.44.18,1.43,1.34-.05,8.3-.04,16.59-.01,24.89,0,.85-.26,1.45-.84,2.06-3.86,4.01-7.71,8.04-11.52,12.09-.63.67-1.28.92-2.18.91-16.32-.02-32.64-.02-48.95,0-.9,0-1.56-.24-2.19-.91-3.78-4.01-7.58-8-11.43-11.95-.73-.75-.95-1.51-.95-2.52.02-17.71.02-35.41.02-53.12Z"/>
        <path class="cls-1" d="M217.36,74.88c0-22.21.01-44.43-.03-66.64,0-1.5.35-1.93,1.9-1.92,20.44.06,40.87.05,61.31.01,1.15,0,1.96.29,2.75,1.14,3.61,3.87,7.27,7.69,10.95,11.49.71.74.99,1.49.99,2.51-.03,12.8-.03,25.61,0,38.41,0,1.03-.33,1.76-1.03,2.49-3.53,3.71-6.96,7.51-10.55,11.17-1.15,1.17-1.01,1.8.07,2.9,3.58,3.66,7.02,7.46,10.55,11.17.66.69.96,1.38.96,2.35-.03,17.31-.04,34.63.01,51.94,0,1.43-.43,1.73-1.78,1.72-7.52-.06-15.03-.07-22.55,0-1.37.01-1.61-.43-1.61-1.68.04-17.09,0-34.18.06-51.27,0-1.49-.37-1.82-1.82-1.8-7.52.08-15.03.09-22.55,0-1.55-.02-1.77.46-1.77,1.85.05,17.04,0,34.07.07,51.11,0,1.5-.4,1.82-1.83,1.8-7.46-.08-14.92-.07-22.38,0-1.41.01-1.74-.4-1.74-1.77.04-22.32.03-44.65.03-66.97Z"/>
        <path class="cls-1" d="M117.73,143.59c-3.79,0-7.58-.09-11.36.04-1.7.06-1.84-.44-1.47-1.94,5.51-22.65,10.97-45.31,16.45-67.97,5.31-21.96,10.64-43.91,15.91-65.87.26-1.1.61-1.54,1.83-1.53,7.8.06,15.59.06,23.39,0,1.18,0,1.62.35,1.88,1.47,10.76,44.68,21.55,89.35,32.37,134.01.35,1.46.17,1.85-1.43,1.83-7.63-.09-15.26-.07-22.88,0-1.33.01-1.77-.45-2.06-1.69-1.92-8.21-3.96-16.4-5.87-24.62-.28-1.19-.81-1.31-1.81-1.3-7.91.03-15.81.06-23.72-.02-1.31-.01-1.67.49-1.93,1.6-1.9,8.11-3.87,16.19-5.75,24.31-.3,1.32-.79,1.78-2.2,1.74-3.78-.12-7.57-.04-11.36-.04Z"/>
        <path class="cls-1" d="M326.88,74.94c0-13.08-.03-26.17.04-39.25,0-1.48-.35-1.93-1.84-1.83-2.05.14-4.12,0-6.18.05-.8.02-1.18-.12-1.18-1.07.04-8.46.03-16.93,0-25.39,0-.89.28-1.11,1.14-1.11,13.64.02,27.29.02,40.93,0,.87,0,1.13.24,1.13,1.12-.03,8.46-.03,16.93,0,25.39,0,.97-.41,1.07-1.19,1.05-2-.04-4.02.09-6.01-.05-1.49-.1-1.84.35-1.84,1.83.05,22.55.04,45.1.04,67.65,0,3.62.06,7.24-.03,10.86-.04,1.4.21,2,1.79,1.87,1.99-.16,4.01,0,6.01-.06.9-.03,1.24.19,1.24,1.18-.04,8.41-.04,16.81,0,25.22,0,.95-.29,1.21-1.22,1.21-13.59-.03-27.17-.03-40.76,0-.95,0-1.22-.27-1.22-1.22.03-8.41.04-16.81,0-25.22,0-.99.34-1.2,1.24-1.17,2,.06,4.02-.11,6.01.06,1.71.15,1.95-.51,1.94-2.04-.06-13.03-.04-26.06-.04-39.08Z"/>
        <path class="cls-1" d="M482.7,74.9c0-22.21.01-44.42-.03-66.63,0-1.44.26-1.96,1.87-1.96,20.38.06,40.75.05,61.13.01,1.24,0,2.05.39,2.88,1.26,3.6,3.8,7.25,7.55,10.91,11.29.75.76,1.11,1.52,1.11,2.63-.03,35.63-.03,71.25,0,106.88,0,1.08-.29,1.87-1.06,2.65-3.79,3.84-7.54,7.73-11.27,11.63-.63.65-1.26.94-2.18.94-20.6-.02-41.2-.03-61.8.02-1.46,0-1.57-.58-1.57-1.76.03-22.32.02-44.64.02-66.97Z"/>
        <path class="cls-6" d="M269.31,47.58c0,4.01-.04,8.01.03,12.02.02,1.21-.17,1.7-1.58,1.69-7.68-.08-15.36-.06-23.04-.01-1.11,0-1.51-.19-1.5-1.42.06-8.18.06-16.36,0-24.54,0-1.21.36-1.45,1.5-1.45,7.68.05,15.36.05,23.04,0,1.21,0,1.62.23,1.59,1.53-.09,4.06-.03,8.12-.03,12.19Z"/>
        <path class="cls-6" d="M150.83,58.94c2.29,9.59,4.52,18.98,6.79,28.36.29,1.19.18,1.65-1.24,1.61-3.84-.1-7.68-.06-11.52-.02-.98.01-1.19-.18-.95-1.2,2.2-9.4,4.34-18.81,6.51-28.21.03-.14.18-.25.4-.53Z"/>
        <path class="cls-6" d="M534.65,75c0,13.13-.02,26.27.03,39.4,0,1.29-.3,1.66-1.63,1.65-7.68-.07-15.36-.06-23.04,0-1.19,0-1.46-.32-1.46-1.48.03-26.38.03-52.76,0-79.13,0-1.22.26-1.59,1.54-1.58,7.68.07,15.36.07,23.04,0,1.28-.01,1.55.35,1.54,1.58-.05,13.19-.03,26.38-.03,39.57Z"/>
        <path class="cls-1" d="M245.96,47.54c0-3.12.04-6.23-.02-9.35-.02-1.09.18-1.57,1.43-1.55,5.95.06,11.91.05,17.86,0,1.12,0,1.38.37,1.38,1.44-.05,6.34-.06,12.69,0,19.03.01,1.22-.4,1.46-1.52,1.45-5.9-.05-11.8-.06-17.7,0-1.21.01-1.48-.38-1.46-1.51.07-3.17.03-6.34.03-9.51Z"/>
        <path class="cls-4" d="M150.88,72.01c1.14,4.58,2.29,9.16,3.47,13.9-2.2,0-4.24-.01-6.29,0-.59,0-.8-.2-.66-.79,1.07-4.34,2.13-8.69,3.2-13.03,0-.03.1-.03.27-.08Z"/>
        <path class="cls-3" d="M531.92,74.94c0,12.19-.02,24.38.03,36.57,0,1.33-.26,1.82-1.71,1.8-5.79-.08-11.58-.07-17.37,0-1.22.01-1.6-.28-1.6-1.56.04-24.49.04-48.99,0-73.48,0-1.21.24-1.64,1.54-1.62,5.79.07,11.58.07,17.37,0,1.36-.02,1.78.32,1.77,1.73-.06,12.19-.03,24.38-.03,36.57Z"/>
        <path class="cls-6" d="M249.47,47.71c0-2.17.03-4.34-.01-6.51-.02-.78.21-1.07,1.03-1.06,3.84.04,7.68.04,11.52,0,.92-.01,1.1.34,1.09,1.17-.03,4.17-.03,8.34,0,12.52,0,.9-.2,1.29-1.2,1.28-3.73-.05-7.46-.06-11.18,0-1.1.02-1.29-.44-1.26-1.39.05-2,.02-4,.02-6.01Z"/>
        <path class="cls-6" d="M528.41,75.04c0,11.02-.02,22.05.03,33.07,0,1.26-.25,1.72-1.62,1.68-3.5-.1-7.02-.08-10.52-.01-1.11.02-1.53-.2-1.52-1.43.04-22.27.04-44.54,0-66.8,0-1.05.23-1.44,1.36-1.41,3.62.07,7.24.08,10.86,0,1.22-.03,1.44.4,1.44,1.51-.04,11.13-.02,22.27-.02,33.4Z"/>
      </g>
      <g>
        <path class="cls-1" d="M45.76,186.27c-.82,4.11-3.19,6.92-7.18,8.17-4.02,1.26-8.58.41-11.5-3.06-1.42-1.69-2.19-3.66-2.3-5.92-.15-3.03.68-5.69,2.84-7.78,2.58-2.49,5.72-3.39,9.31-2.87,3.28.47,5.81,2.03,7.54,4.85,1.03,1.68,1.26,3.58,1.44,5.49-.18.36,0,.76-.15,1.12Z"/>
        <path class="cls-1" d="M155.93,186.27c-.82,4.11-3.19,6.92-7.18,8.17-4.02,1.26-8.58.41-11.5-3.06-1.42-1.69-2.19-3.66-2.3-5.92-.15-3.03.68-5.69,2.84-7.78,2.58-2.49,5.72-3.39,9.31-2.87,3.28.47,5.81,2.03,7.54,4.85,1.03,1.68,1.26,3.58,1.44,5.49-.18.36,0,.76-.15,1.12Z"/>
        <path class="cls-1" d="M353.43,186.27c-.82,4.11-3.19,6.92-7.18,8.17-4.02,1.26-8.58.41-11.5-3.06-1.42-1.69-2.19-3.66-2.3-5.92-.15-3.03.68-5.69,2.84-7.78,2.58-2.49,5.72-3.39,9.31-2.87,3.28.47,5.81,2.03,7.54,4.85,1.03,1.68,1.26,3.58,1.44,5.49-.18.36,0,.76-.15,1.12Z"/>
        <path class="cls-1" d="M566.57,186.27c-.82,4.11-3.19,6.92-7.18,8.17-4.02,1.26-8.58.42-11.5-3.06-1.42-1.69-2.19-3.66-2.3-5.92-.15-3.03.68-5.69,2.84-7.78,2.58-2.49,5.72-3.39,9.31-2.87,3.28.47,5.81,2.03,7.54,4.85,1.03,1.68,1.26,3.58,1.44,5.49-.18.36,0,.76-.15,1.12Z"/>
        <path class="cls-1" d="M101.95,186.12c.02,2.11,2.34,4.69,4.64,4.82.67.15,1.35.14,2.02,0,1.72-.3,3.18-2.1,3.57-3.74.14-.56-.29-.72-.76-.72-.92,0-1.83-.05-2.75.01-.81.05-1.02-.28-1-1.04.06-2.02-.14-1.7,1.67-1.71,2.18-.02,4.37.02,6.55-.02.81-.01,1.17.25,1.1,1.1-.29,3.48-1.14,6.67-4.27,8.77-1.07.72-2.26,1.06-3.5,1.22-3.58.45-6.91-.08-9.57-2.75-1.59-1.61-2.37-3.63-2.51-5.9-.17-2.57.15-4.96,1.69-7.18,1.53-2.21,3.59-3.51,6.13-4.05,3.15-.66,6.18-.26,8.99,1.41,1.13.68,1.18.94.36,1.91q-1.74,2.07-4.25.98c-.4-.17-.78-.43-1.25-.39-.36-.18-.76,0-1.12-.15-2.86-.14-5.6,2.28-5.73,5.02-.16.8-.15,1.6-.01,2.4Z"/>
        <path class="cls-1" d="M264.37,184.74c0-2.82.03-5.63-.02-8.45-.01-.88.2-1.26,1.17-1.23,2.32.07,4.65-.06,6.97.05,2.82.13,5.44.83,7.4,3.11,1.99,2.31,2.46,5.01,2.14,7.92-.15,1.35-.45,2.67-1.18,3.86-1.87,3.06-4.75,4.32-8.16,4.49-2.46.13-4.93,0-7.39.05-.81.02-.94-.37-.94-1.03.01-2.92,0-5.84,0-8.76Z"/>
        <path class="cls-1" d="M226.73,183.74c1.23,0,2.47,0,3.7,0,.57,0,.99.12.95.81-.21,3.56-1.03,6.82-4.21,9.01-1.09.75-2.31,1.11-3.58,1.27-3.53.43-6.85-.08-9.48-2.72-1.63-1.63-2.43-3.67-2.57-5.98-.15-2.57.17-4.96,1.72-7.17,1.54-2.21,3.6-3.49,6.14-4.02,3.07-.65,6.04-.25,8.81,1.32,1.3.74,1.34,1,.41,2.12-2.08,2.52-1.44,2.01-4.26.77-2.9-1.28-6.69-.02-7.87,3.79-1.15,3.7.92,7.33,4.59,8.1,2.58.54,5.19-1.31,5.59-3.91.09-.61-.21-.64-.65-.64-.99,0-1.97-.03-2.96.01-1.16.05-.96-.74-.97-1.43,0-.68-.12-1.38.95-1.34,1.23.05,2.46.01,3.7.01Z"/>
        <path class="cls-1" d="M382.15,184.78c0-2.85.02-5.7-.01-8.55-.01-.83.18-1.19,1.11-1.17,2.53.06,5.07.02,7.61.03,1.3,0,2.58.25,3.79.67,2.06.72,3.4,2.1,3.55,4.4.19,3-.28,5.57-3.58,6.93-.57.23-.63.44-.3.96,1.1,1.77,2.16,3.56,3.22,5.35.57.96.43,1.22-.67,1.24-1.02.02-2.04.02-3.06.05-.69.02-1.01-.52-1.22-.95-.78-1.54-1.69-2.98-2.57-4.45-.58-.95-2.57-1.56-3.53-1.07-.37.19-.3.52-.3.83,0,1.44-.03,2.89.01,4.33.03.88-.26,1.27-1.2,1.28-2.83.03-2.83.06-2.83-2.81v-7.07Z"/>
        <path class="cls-1" d="M489.26,187.37c1.22,2.04,2.39,3.97,3.53,5.91.2.33.62.67.34,1.11-.24.39-.7.24-1.07.25-.95.03-1.9,0-2.85.05-.74.04-1.06-.52-1.29-.99-.79-1.6-1.78-3.09-2.66-4.64-.43-.76-2.74-1.27-3.47-.81-.34.21-.25.55-.25.86,0,1.41-.04,2.82.01,4.22.03.93-.27,1.33-1.26,1.33-2.77,0-2.77.03-2.77-2.76,0-5.17.02-10.35-.02-15.52,0-.98.21-1.36,1.28-1.33,2.39.08,4.79,0,7.18.03,2,.03,3.92.4,5.66,1.5,1.49.93,1.82,2.38,1.95,3.94.27,3.3-.89,5.76-4.31,6.84Z"/>
        <path class="cls-1" d="M203.56,194.73c-2.43,0-2.45,0-3.23-2.39-.29-.88-.74-1.26-1.72-1.22-2.04.08-4.09.06-6.13,0-.72-.02-1.06.23-1.29.9-.92,2.71-.94,2.71-3.76,2.71-.32,0-.63,0-.95,0-1.3,0-1.44-.2-.96-1.4,2.33-5.82,4.69-11.63,6.99-17.46.24-.6.53-.81,1.14-.8,1.23.03,2.47.06,3.7-.01.94-.06,1.38.35,1.7,1.17,1.3,3.31,2.65,6.61,3.98,9.91.95,2.38,1.89,4.76,2.84,7.14.53,1.31.45,1.44-.94,1.44-.46,0-.92,0-1.37,0Z"/>
        <path class="cls-1" d="M289.11,184.8c0-2.85.03-5.7-.02-8.55-.02-.94.3-1.2,1.22-1.19,3.94.04,7.89.04,11.84,0,1.03,0,1.36.42,1.35,1.39-.03,2.77.28,2.66-2.6,2.64-2.25-.01-4.51.02-6.76-.02-.66-.01-.86.17-.81.82.06.77.05,1.55,0,2.32-.04.59.2.69.73.69,2.29-.03,4.58.02,6.87-.02.95-.02,1.32.34,1.31,1.3-.02,2.69.12,2.54-2.52,2.52-1.83-.01-3.66.02-5.5-.02-.65-.01-.97.11-.89.85.11.96-.41,2.26.22,2.82.54.48,1.81.15,2.75.15,1.97,0,3.95.03,5.92,0,.97-.02,1.3.38,1.28,1.32-.04,2.9.32,2.72-2.74,2.71-3.52,0-7.05-.03-10.57.01-.83,0-1.11-.23-1.1-1.08.04-2.89.02-5.77.02-8.66Z"/>
        <path class="cls-1" d="M75.54,184.79c0-2.82.03-5.63-.01-8.45-.01-.91.19-1.3,1.23-1.29,3.94.06,7.89.04,11.84.01.95,0,1.35.34,1.34,1.29-.03,2.91.32,2.75-2.71,2.74-2.18-.01-4.37.02-6.55-.01-.63,0-.99.06-.9.83.11.97-.41,2.26.21,2.82.53.48,1.8.15,2.75.16,1.59.01,3.17.02,4.76,0,.86-.02,1.19.36,1.19,1.2-.01,2.76.19,2.64-2.53,2.61-1.87-.02-3.73.02-5.6-.02-.58-.01-.81.14-.77.75.06.98-.32,2.25.17,2.86.51.64,1.84.18,2.81.2,1.97.03,3.95.03,5.92,0,.89-.01,1.28.3,1.27,1.22-.05,2.99.36,2.81-2.75,2.8-3.52-.01-7.05-.03-10.57.02-.85.01-1.1-.26-1.09-1.09.04-2.89.02-5.77.02-8.66Z"/>
        <path class="cls-1" d="M407.1,184.77c0-2.85.02-5.7-.01-8.55-.01-.85.24-1.17,1.14-1.16,3.98.04,7.96.04,11.94,0,.96,0,1.33.37,1.32,1.31-.03,2.85.32,2.74-2.63,2.72-2.25-.02-4.51.01-6.76-.01-.57,0-.82.11-.78.74.06.98-.32,2.25.16,2.86.51.65,1.84.18,2.81.2,1.55.04,3.1.04,4.65,0,.88-.02,1.29.3,1.28,1.22-.02,2.76.18,2.62-2.55,2.6-1.87-.01-3.73.02-5.6-.02-.61-.01-.79.18-.75.77.06.98-.31,2.26.18,2.85.52.62,1.85.17,2.82.19,1.97.03,3.95.03,5.92,0,.9-.02,1.27.33,1.25,1.24-.04,2.98.36,2.8-2.76,2.79-3.49-.01-6.98-.03-10.46.02-.95.01-1.2-.31-1.18-1.21.05-2.85.02-5.7.02-8.55Z"/>
        <path class="cls-1" d="M502.46,184.87c0-2.89.02-5.77-.01-8.66-.01-.85.25-1.16,1.14-1.15,3.98.04,7.96.04,11.94,0,.96,0,1.33.38,1.32,1.31-.03,2.84.32,2.74-2.63,2.72-2.25-.02-4.51.01-6.76-.02-.58,0-.82.12-.78.74.06.98-.32,2.25.17,2.86.51.64,1.84.18,2.81.2,1.58.04,3.17.03,4.76,0,.79-.01,1.17.31,1.16,1.11-.02,2.84.24,2.73-2.55,2.7-1.83-.02-3.66.02-5.5-.01-.58,0-.92.05-.86.77.09.97-.3,2.26.19,2.85.52.62,1.85.17,2.82.19,1.97.03,3.95.03,5.92,0,.9-.02,1.26.34,1.25,1.25-.04,2.98.36,2.79-2.77,2.78-3.45,0-6.91-.04-10.36.02-1.06.02-1.3-.34-1.28-1.33.06-2.78.02-5.56.02-8.34Z"/>
        <path class="cls-1" d="M435.21,181.22c.17.89.94,1.05,1.61,1.25,1.73.52,3.49.92,5.2,1.5,1.77.6,3.42,1.44,3.98,3.48.82,2.99-.77,6.38-4.41,7.26-4.06.98-7.87.41-11.41-1.88-.56-.36-.55-.65-.26-1.17.42-.78,1.17-1.27,1.69-1.96.28-.37.68-.19,1.1.05,1.42.8,2.85,1.62,4.56,1.62.43.19.9-.01,1.33.15,1.16.01,2.21-.18,2.78-1.36.12-.41.12-.81,0-1.22-.67-1.16-1.92-1.3-3.02-1.64-1.42-.44-2.88-.71-4.29-1.19-2.49-.85-3.72-2.78-3.74-4.85-.04-2.94,1.35-4.95,3.68-5.74,3.7-1.25,7.24-.71,10.62,1.14.64.35.69.81.3,1.38-.02.03-.03.06-.05.09q-1.55,2.5-4.21,1.18c-.56-.28-1.17-.34-1.78-.46-.75-.13-1.49-.14-2.24,0-.7.05-1.28.28-1.43,1.06-.16.43-.16.87,0,1.3Z"/>
        <path class="cls-1" d="M10.42,179.13c-2.99-.14-5.28,2.44-5.31,4.57-.2.34,0,.74-.15,1.09,0,.07,0,.15,0,.22.15.36-.02.77.15,1.13-.08,1.95,2.25,4.64,4.21,4.59.35.19.75,0,1.1.15,1.51.1,2.71-.63,3.77-1.54.62-.53,1.06-.54,1.64-.1.53.4,1.07.78,1.6,1.17.86.63.87.92.14,1.7-1.66,1.76-3.69,2.75-6.11,2.99-3.27.32-6.24-.38-8.57-2.78-2.71-2.79-3.38-6.21-2.54-9.94,1.22-5.46,6.55-8.22,11.69-7.36,2.15.36,3.98,1.15,5.53,2.65.56.55.71.99-.11,1.48-.59.36-1.11.86-1.63,1.32-.74.66-1.39.53-2.09-.08-.64-.56-1.35-1.04-2.24-1.12-.33-.22-.73,0-1.07-.16Z"/>
        <path class="cls-1" d="M243.83,187.22c.09,2.31,1.79,3.5,3.52,3.7,2.05.24,4.07-1.01,4.57-2.78.07-.26.13-.51.2-.77.22-.41-.02-.88.16-1.29.01-3.27.05-6.54.02-9.81-.01-.92.26-1.22,1.2-1.2,3.12.06,2.84-.29,2.84,2.83,0,2.96.07,5.91-.03,8.86-.08,2.33-.53,4.58-2.38,6.27-1.15,1.05-2.53,1.62-4.05,1.78-2.7.28-5.39.39-7.71-1.38-1.31-1-2.07-2.43-2.27-3.99-.57-4.5-.15-9.02-.26-13.54-.01-.57.23-.82.82-.81,3.55.04,3.2-.46,3.2,2.98,0,2.67.02,5.35.04,8.02.15.37-.02.78.15,1.15Z"/>
        <path class="cls-1" d="M524.67,184.69c0-2.82.03-5.63-.02-8.45-.02-.95.31-1.21,1.22-1.18,2.29.06,4.58-.06,6.87.05,2.35.11,4.62.64,6.03,2.78,2.11,3.2,1.67,8.85-4.11,9.86-1.65.29-3.3.22-4.95.2-.77-.01-1.07.19-1.04,1,.06,1.48,0,2.96.02,4.44.01.8-.34,1.12-1.14,1.14-2.88.07-2.88.09-2.88-2.76v-7.08Z"/>
        <path class="cls-1" d="M461.18,175.08c2.36,0,4.72,0,7.08,0,1.29,0,1.43.13,1.43,1.36,0,3.18.33,2.86-2.89,2.86-.88,0-1.76.05-2.64-.02-.8-.06-1.06.16-1.05,1.01.05,4.33.02,8.66.02,12.98,0,1.33-.12,1.44-1.46,1.44q-2.56,0-2.56-2.54c0-3.94-.02-7.88.02-11.82,0-.84-.24-1.12-1.08-1.08-1.41.06-2.82-.02-4.22.03-.75.02-1.06-.19-1.07-1-.06-3.24-.08-3.24,3.15-3.24,1.76,0,3.52,0,5.28,0Z"/>
        <path class="cls-1" d="M53.13,184.86c0-2.89.02-5.78-.01-8.66-.01-.87.28-1.15,1.15-1.14,3.18.06,2.88-.33,2.88,2.89,0,3.77.05,7.54-.03,11.3-.03,1.13.33,1.3,1.34,1.27,2.57-.07,5.14,0,7.72-.04,1.01-.02,1.37.36,1.36,1.36-.04,2.88.26,2.68-2.67,2.67-3.45,0-6.91-.04-10.36.02-1.05.02-1.42-.23-1.39-1.34.08-2.78.03-5.56.03-8.34Z"/>
        <path class="cls-1" d="M311.52,184.76c0-2.85.02-5.7-.01-8.56-.01-.86.26-1.16,1.15-1.14,3.19.06,2.88-.34,2.88,2.89,0,3.84.03,7.68-.03,11.51-.01.92.27,1.08,1.11,1.06,2.64-.06,5.29,0,7.93-.04,1-.02,1.38.35,1.36,1.36-.04,2.88.26,2.68-2.67,2.68-3.45,0-6.91,0-10.36,0q-1.36,0-1.36-1.41c0-2.78,0-5.56,0-8.35Z"/>
        <path class="cls-1" d="M124.17,184.74c0-2.85.03-5.7-.02-8.55-.01-.88.28-1.15,1.15-1.13,3.19.06,2.89-.33,2.88,2.88,0,5.07,0,10.13,0,15.2,0,1.25-.13,1.37-1.41,1.38q-2.61.01-2.61-2.6c0-2.39,0-4.78,0-7.18Z"/>
        <path class="cls-2" d="M101.95,186.12c-.29-.8-.25-1.6.01-2.4,0,.8,0,1.6-.01,2.4Z"/>
        <path class="cls-2" d="M436.64,178.86c.75-.31,1.49-.25,2.24,0-.75,0-1.49,0-2.24,0Z"/>
        <path class="cls-2" d="M108.6,190.95c-.67.28-1.35.27-2.02,0,.67,0,1.35,0,2.02,0Z"/>
        <path class="cls-2" d="M252.28,186.07c.03.44.09.89-.16,1.29.03-.43-.16-.89.16-1.29Z"/>
        <path class="cls-2" d="M438.6,191.52c-.45.03-.91.08-1.33-.15.45.02.92-.17,1.33.15Z"/>
        <path class="cls-2" d="M435.21,181.22c-.29-.43-.29-.87,0-1.3,0,.43,0,.87,0,1.3Z"/>
        <path class="cls-2" d="M4.95,184.79c-.03-.38-.07-.75.15-1.09-.02.37.14.76-.15,1.09Z"/>
        <path class="cls-2" d="M107.69,178.71c.39-.03.77-.08,1.12.15-.38-.01-.78.15-1.12-.15Z"/>
        <path class="cls-2" d="M45.76,186.27c-.01-.38,0-.76.15-1.12-.01.38.15.78-.15,1.12Z"/>
        <path class="cls-2" d="M155.93,186.27c-.01-.38,0-.76.15-1.12-.01.38.15.78-.15,1.12Z"/>
        <path class="cls-2" d="M353.43,186.27c-.01-.38,0-.76.15-1.12-.01.38.15.78-.15,1.12Z"/>
        <path class="cls-2" d="M566.57,186.27c-.01-.38,0-.76.15-1.12-.02.38.15.78-.15,1.12Z"/>
        <path class="cls-2" d="M243.83,187.22c-.24-.36-.18-.76-.15-1.15.3.35.13.76.15,1.15Z"/>
        <path class="cls-2" d="M10.42,179.13c.37-.04.74-.06,1.07.16-.36-.03-.75.13-1.07-.16Z"/>
        <path class="cls-2" d="M441.38,188.94c.27.41.26.81,0,1.22,0-.41,0-.81,0-1.22Z"/>
        <path class="cls-2" d="M10.41,190.89c-.38.02-.76.09-1.1-.15.37.02.77-.15,1.1.15Z"/>
        <path class="cls-2" d="M5.1,186.15c-.24-.35-.17-.74-.15-1.13.3.34.14.75.15,1.13Z"/>
        <path class="cls-6" d="M29.81,184.73c0-3.3,2.34-5.74,5.47-5.71,3.19.03,5.6,2.58,5.57,5.91-.03,3.23-2.36,5.65-5.45,5.65-3.23,0-5.6-2.48-5.6-5.86Z"/>
        <path class="cls-6" d="M145.52,179.02c3.19.06,5.56,2.63,5.51,5.97-.05,3.22-2.43,5.62-5.51,5.58-3.27-.04-5.6-2.58-5.53-6.02.07-3.25,2.42-5.6,5.53-5.53Z"/>
        <path class="cls-6" d="M337.48,184.77c-.02-3.32,2.29-5.76,5.42-5.76,3.19,0,5.63,2.54,5.62,5.87,0,3.23-2.32,5.67-5.4,5.7-3.23.03-5.63-2.44-5.64-5.81Z"/>
        <path class="cls-6" d="M550.62,184.71c.01-3.3,2.35-5.73,5.49-5.69,3.19.04,5.59,2.6,5.55,5.93-.03,3.22-2.38,5.64-5.47,5.63-3.23-.01-5.59-2.49-5.58-5.88Z"/>
        <path class="cls-6" d="M268.39,184.69c0-1.58.02-3.17-.01-4.75-.01-.64.2-.88.85-.85,1.47.07,2.96-.11,4.42.22,2.6.6,4.09,2.67,4.04,5.66-.04,2.85-1.58,4.79-4.17,5.33-1.5.31-3.02.14-4.53.2-.57.02-.61-.31-.61-.74,0-1.69,0-3.38,0-5.07Z"/>
        <path class="cls-6" d="M386.17,181.72c0-.14,0-.28,0-.42,0-2.63,0-2.63,2.69-2.63,1.1,0,2.17.12,3.17.65,1.99,1.05,2.09,3.48.21,4.69-1.76,1.13-3.74.75-5.65.76-.42,0-.41-.4-.41-.73,0-.77,0-1.55,0-2.32Z"/>
        <path class="cls-6" d="M481.53,181.66c0-.74,0-1.48,0-2.22,0-.39.07-.75.53-.75,1.61,0,3.24-.22,4.8.38,1.37.53,2.06,1.4,2.06,2.63,0,1.35-.8,2.13-1.93,2.63-1.61.71-3.32.43-5,.44-.42,0-.46-.35-.46-.69,0-.81,0-1.62,0-2.43Z"/>
        <path class="cls-6" d="M199.02,187.73h-6.56c1.06-2.85,2.1-5.65,3.23-8.68,1.17,3.04,2.24,5.83,3.33,8.68Z"/>
        <path class="cls-6" d="M528.69,181.43c0-.74.01-1.48,0-2.22-.01-.47.16-.75.66-.75,1.37.02,2.74-.15,4.1.19,1.68.42,2.65,1.45,2.65,2.84,0,1.36-1.01,2.46-2.63,2.87-1.35.35-2.73.16-4.1.21-.51.02-.67-.26-.67-.73.01-.81,0-1.62,0-2.43,0,0,0,0,0,0Z"/>
      </g>
    </g>
  </g>
</svg>